<svg width="22" height="19" viewBox="0 0 22 19" fill="none" xmlns="http://www.w3.org/2000/svg">
<path d="M20.9999 7.18601C20.9999 9.06092 19.9886 10.7464 18.3784 11.9193C18.3226 11.9583 18.292 12.0251 18.2892 12.092L18.2196 13.9168C18.2112 14.1619 17.941 14.304 17.7348 14.1731L16.1886 13.2008C16.1886 13.2008 16.1886 13.2008 16.1858 13.2008C16.0967 13.1423 15.9881 13.1256 15.8878 13.1562C14.9684 13.4431 13.9683 13.6019 12.9208 13.6019C12.9068 13.6019 12.8929 13.6019 12.879 13.6019C12.9068 13.4181 12.9208 13.2314 12.9208 13.042C12.9208 10.426 10.2519 8.30594 6.95894 8.30594C6.28196 8.30594 5.63285 8.39509 5.02552 8.55946C4.90294 8.1165 4.83887 7.65404 4.83887 7.18044C4.83887 3.63398 8.45497 0.761719 12.918 0.761719C17.3838 0.767291 20.9999 3.64234 20.9999 7.18601Z" stroke="#A9A9B0" stroke-width="1.5" stroke-miterlimit="10"/>
<path d="M5.02842 8.56445C2.68547 9.20242 1 10.9687 1 13.047C1 14.4288 1.74662 15.6741 2.93342 16.5405C2.97521 16.5711 2.99749 16.6185 3.00028 16.6686L3.05042 18.0142C3.056 18.1953 3.25658 18.2984 3.40981 18.2037L4.55203 17.4849C4.56038 17.4793 4.57153 17.471 4.57989 17.4654C4.62167 17.432 4.67739 17.4208 4.72754 17.4376C5.41844 17.6604 6.17064 17.783 6.96183 17.783C10.0152 17.783 12.5336 15.9582 12.8819 13.6069" stroke="#A9A9B0" stroke-width="1.5" stroke-miterlimit="10"/>
</svg>
