<svg width="49" height="16" viewBox="0 0 49 16" fill="none" xmlns="http://www.w3.org/2000/svg">
<rect x="0.301025" y="0.532227" width="48" height="14.9781" rx="7.18115" fill="#E73F3F" fill-opacity="0.15"/>
<path fill-rule="evenodd" clip-rule="evenodd" d="M9.80098 4.52148C9.70152 4.52148 9.60614 4.56099 9.53581 4.63132C9.46549 4.70165 9.42598 4.79703 9.42598 4.89648L9.42598 9.24124L7.81648 7.63098C7.78161 7.59612 7.74022 7.56846 7.69467 7.54959C7.64911 7.53072 7.60029 7.52101 7.55098 7.52101C7.50167 7.52101 7.45285 7.53072 7.40729 7.54959C7.36174 7.56846 7.32034 7.59612 7.28548 7.63098C7.25061 7.66585 7.22296 7.70724 7.20409 7.7528C7.18522 7.79835 7.17551 7.84718 7.17551 7.89648C7.17551 7.94579 7.18522 7.99462 7.20409 8.04017C7.22296 8.08573 7.25061 8.12712 7.28548 8.16198L9.53548 10.412C9.57031 10.4469 9.6117 10.4746 9.65725 10.4935C9.70281 10.5124 9.75165 10.5222 9.80098 10.5222C9.8503 10.5222 9.89915 10.5124 9.9447 10.4935C9.99026 10.4746 10.0316 10.4469 10.0665 10.412L12.3165 8.16198C12.3513 8.12712 12.379 8.08573 12.3979 8.04017C12.4167 7.99462 12.4265 7.94579 12.4265 7.89648C12.4265 7.84718 12.4167 7.79835 12.3979 7.7528C12.379 7.70724 12.3513 7.66585 12.3165 7.63098C12.2461 7.56057 12.1506 7.52101 12.051 7.52101C12.0017 7.52101 11.9528 7.53072 11.9073 7.54959C11.8617 7.56846 11.8203 7.59612 11.7855 7.63098L10.176 9.24123L10.176 4.89648C10.176 4.79703 10.1365 4.70165 10.0661 4.63132C9.99582 4.56099 9.90043 4.52148 9.80098 4.52148Z" fill="#E73F3F"/>
<path d="M19.865 9.96948C19.961 9.96948 20.0357 9.99348 20.089 10.0415C20.1424 10.0895 20.169 10.1562 20.169 10.2415C20.169 10.4282 20.0677 10.5215 19.865 10.5215H16.729C16.6384 10.5215 16.5637 10.4948 16.505 10.4415C16.4464 10.3828 16.417 10.3135 16.417 10.2335C16.417 10.1322 16.4544 10.0442 16.529 9.96948L18.457 7.84948C18.7237 7.55082 18.9157 7.28415 19.033 7.04948C19.1557 6.80948 19.217 6.56948 19.217 6.32948C19.217 6.02015 19.1264 5.78282 18.945 5.61748C18.769 5.45215 18.5184 5.36948 18.193 5.36948C17.937 5.36948 17.6917 5.41748 17.457 5.51348C17.2224 5.60415 16.9877 5.74548 16.753 5.93748C16.673 6.00148 16.5984 6.03348 16.529 6.03348C16.4704 6.03348 16.4197 6.00682 16.377 5.95348C16.3344 5.89482 16.313 5.82548 16.313 5.74548C16.313 5.63348 16.3557 5.54282 16.441 5.47348C16.6597 5.27082 16.9264 5.11082 17.241 4.99348C17.5557 4.87615 17.8784 4.81748 18.209 4.81748C18.7157 4.81748 19.1184 4.95082 19.417 5.21748C19.721 5.48415 19.873 5.84415 19.873 6.29748C19.873 6.62282 19.7984 6.93482 19.649 7.23348C19.505 7.53215 19.265 7.86548 18.929 8.23348L17.329 9.96948H19.865ZM24.6619 9.96948C24.7579 9.96948 24.8326 9.99348 24.8859 10.0415C24.9392 10.0895 24.9659 10.1562 24.9659 10.2415C24.9659 10.4282 24.8646 10.5215 24.6619 10.5215H21.5259C21.4352 10.5215 21.3606 10.4948 21.3019 10.4415C21.2432 10.3828 21.2139 10.3135 21.2139 10.2335C21.2139 10.1322 21.2512 10.0442 21.3259 9.96948L23.2539 7.84948C23.5206 7.55082 23.7126 7.28415 23.8299 7.04948C23.9526 6.80948 24.0139 6.56948 24.0139 6.32948C24.0139 6.02015 23.9232 5.78282 23.7419 5.61748C23.5659 5.45215 23.3152 5.36948 22.9899 5.36948C22.7339 5.36948 22.4886 5.41748 22.2539 5.51348C22.0192 5.60415 21.7846 5.74548 21.5499 5.93748C21.4699 6.00148 21.3952 6.03348 21.3259 6.03348C21.2672 6.03348 21.2166 6.00682 21.1739 5.95348C21.1312 5.89482 21.1099 5.82548 21.1099 5.74548C21.1099 5.63348 21.1526 5.54282 21.2379 5.47348C21.4566 5.27082 21.7232 5.11082 22.0379 4.99348C22.3526 4.87615 22.6752 4.81748 23.0059 4.81748C23.5126 4.81748 23.9152 4.95082 24.2139 5.21748C24.5179 5.48415 24.6699 5.84415 24.6699 6.29748C24.6699 6.62282 24.5952 6.93482 24.4459 7.23348C24.3019 7.53215 24.0619 7.86548 23.7259 8.23348L22.1259 9.96948H24.6619ZM26.2988 9.65748C26.4321 9.65748 26.5388 9.71082 26.6188 9.81748C26.7041 9.91882 26.7468 10.0735 26.7468 10.2815C26.7468 10.7028 26.6108 11.0575 26.3388 11.3455C26.2854 11.4042 26.2241 11.4335 26.1548 11.4335C26.1014 11.4335 26.0534 11.4122 26.0108 11.3695C25.9681 11.3322 25.9468 11.2868 25.9468 11.2335C25.9468 11.1748 25.9681 11.1242 26.0108 11.0815C26.1494 10.9375 26.2374 10.7588 26.2748 10.5455C26.1574 10.5348 26.0588 10.4922 25.9788 10.4175C25.9041 10.3375 25.8668 10.2362 25.8668 10.1135C25.8668 9.98015 25.9068 9.87082 25.9868 9.78548C26.0721 9.70015 26.1761 9.65748 26.2988 9.65748ZM31.4869 8.75348C31.5829 8.75348 31.6576 8.78015 31.7109 8.83348C31.7642 8.88148 31.7909 8.94548 31.7909 9.02548C31.7909 9.20682 31.6896 9.29748 31.4869 9.29748H30.8869V10.2255C30.8869 10.3322 30.8549 10.4148 30.7909 10.4735C30.7322 10.5322 30.6549 10.5615 30.5589 10.5615C30.4629 10.5615 30.3856 10.5322 30.3269 10.4735C30.2682 10.4148 30.2389 10.3322 30.2389 10.2255V9.29748H27.8709C27.7749 9.29748 27.7002 9.27082 27.6469 9.21748C27.5936 9.16415 27.5669 9.09748 27.5669 9.01748C27.5669 8.94282 27.5962 8.86015 27.6549 8.76948L30.2709 4.98548C30.3456 4.88948 30.4416 4.84148 30.5589 4.84148C30.6496 4.84148 30.7269 4.87082 30.7909 4.92948C30.8549 4.98815 30.8869 5.07082 30.8869 5.17748V8.75348H31.4869ZM28.3109 8.75348H30.2389V5.97748L28.3109 8.75348ZM35.9558 9.96948C36.0518 9.96948 36.1264 9.99348 36.1798 10.0415C36.2331 10.0895 36.2598 10.1562 36.2598 10.2415C36.2598 10.3322 36.2331 10.4015 36.1798 10.4495C36.1318 10.4975 36.0571 10.5215 35.9558 10.5215H33.3078C33.2064 10.5215 33.1291 10.4975 33.0758 10.4495C33.0278 10.4015 33.0038 10.3322 33.0038 10.2415C33.0038 10.1562 33.0304 10.0895 33.0838 10.0415C33.1371 9.99348 33.2118 9.96948 33.3078 9.96948H34.2998V5.68148L33.4278 6.24948C33.3851 6.27615 33.3424 6.28948 33.2998 6.28948C33.2251 6.28948 33.1584 6.25482 33.0998 6.18548C33.0464 6.11615 33.0198 6.04148 33.0198 5.96148C33.0198 5.84948 33.0624 5.76948 33.1478 5.72148L34.3638 4.92948C34.4544 4.87082 34.5478 4.84148 34.6438 4.84148C34.7344 4.84148 34.8091 4.87082 34.8678 4.92948C34.9264 4.98815 34.9558 5.07082 34.9558 5.17748V9.96948H35.9558ZM39.2407 10.4815C39.1713 10.5988 39.0833 10.6575 38.9767 10.6575C38.9073 10.6575 38.846 10.6335 38.7927 10.5855C38.7447 10.5375 38.7207 10.4735 38.7207 10.3935C38.7207 10.3295 38.7393 10.2682 38.7767 10.2095L41.8327 4.92148C41.902 4.80415 41.99 4.74548 42.0967 4.74548C42.166 4.74548 42.2247 4.77215 42.2727 4.82548C42.326 4.87348 42.3527 4.93482 42.3527 5.00948C42.3527 5.06815 42.3367 5.12948 42.3047 5.19348L39.2407 10.4815ZM38.6167 8.26548C38.19 8.26548 37.8567 8.12148 37.6167 7.83348C37.3767 7.54015 37.2567 7.10815 37.2567 6.53748C37.2567 5.97215 37.3767 5.54548 37.6167 5.25748C37.8567 4.96415 38.19 4.81748 38.6167 4.81748C39.0433 4.81748 39.3767 4.96415 39.6167 5.25748C39.8567 5.54548 39.9767 5.97215 39.9767 6.53748C39.9767 7.10815 39.8567 7.54015 39.6167 7.83348C39.3767 8.12148 39.0433 8.26548 38.6167 8.26548ZM38.6167 7.80148C38.878 7.80148 39.07 7.70015 39.1927 7.49748C39.3207 7.29482 39.3847 6.97482 39.3847 6.53748C39.3847 6.10548 39.3207 5.78815 39.1927 5.58548C39.07 5.38282 38.878 5.28148 38.6167 5.28148C38.3553 5.28148 38.1607 5.38282 38.0327 5.58548C37.9047 5.78815 37.8407 6.10548 37.8407 6.53748C37.8407 6.97482 37.9047 7.29482 38.0327 7.49748C38.1607 7.70015 38.3553 7.80148 38.6167 7.80148ZM42.4567 10.5775C42.03 10.5775 41.6967 10.4335 41.4567 10.1455C41.2167 9.85215 41.0967 9.42015 41.0967 8.84948C41.0967 8.28415 41.2167 7.85748 41.4567 7.56948C41.6967 7.27615 42.03 7.12948 42.4567 7.12948C42.8887 7.12948 43.222 7.27348 43.4567 7.56148C43.6967 7.84948 43.8167 8.27882 43.8167 8.84948C43.8167 9.42015 43.6967 9.85215 43.4567 10.1455C43.222 10.4335 42.8887 10.5775 42.4567 10.5775ZM42.4567 10.1135C42.7233 10.1135 42.918 10.0148 43.0407 9.81748C43.1687 9.61482 43.2327 9.29215 43.2327 8.84948C43.2327 8.41748 43.1687 8.10015 43.0407 7.89748C42.9127 7.69482 42.718 7.59348 42.4567 7.59348C42.1953 7.59348 42.0007 7.69482 41.8727 7.89748C41.75 8.10015 41.6887 8.41748 41.6887 8.84948C41.6887 9.28682 41.75 9.60682 41.8727 9.80948C42.0007 10.0122 42.1953 10.1135 42.4567 10.1135Z" fill="#E73F3F"/>
</svg>
