<svg width="49" height="16" viewBox="0 0 49 16" fill="none" xmlns="http://www.w3.org/2000/svg">
<rect x="0.301025" y="0.532227" width="48" height="14.9781" rx="7.18115" fill="#FF9501" fill-opacity="0.15"/>
<path fill-rule="evenodd" clip-rule="evenodd" d="M9.80098 10.5215C9.70152 10.5215 9.60614 10.482 9.53581 10.4116C9.46549 10.3413 9.42598 10.2459 9.42598 10.1465L9.42598 5.80173L7.81648 7.41198C7.78161 7.44685 7.74022 7.47451 7.69467 7.49338C7.64911 7.51225 7.60029 7.52196 7.55098 7.52196C7.50167 7.52196 7.45285 7.51225 7.40729 7.49338C7.36174 7.47451 7.32034 7.44685 7.28548 7.41198C7.25061 7.37712 7.22296 7.33573 7.20409 7.29017C7.18522 7.24462 7.17551 7.19579 7.17551 7.14648C7.17551 7.09718 7.18522 7.04835 7.20409 7.0028C7.22296 6.95724 7.25061 6.91585 7.28548 6.88098L9.53548 4.63098C9.57031 4.59606 9.6117 4.56835 9.65725 4.54945C9.70281 4.53054 9.75165 4.52081 9.80098 4.52081C9.8503 4.52081 9.89915 4.53055 9.9447 4.54945C9.99026 4.56835 10.0316 4.59606 10.0665 4.63098L12.3165 6.88098C12.3513 6.91585 12.379 6.95724 12.3979 7.0028C12.4167 7.04835 12.4265 7.09718 12.4265 7.14648C12.4265 7.19579 12.4167 7.24462 12.3979 7.29017C12.379 7.33573 12.3513 7.37712 12.3165 7.41198C12.2461 7.4824 12.1506 7.52196 12.051 7.52196C12.0017 7.52196 11.9528 7.51225 11.9073 7.49338C11.8617 7.47451 11.8203 7.44685 11.7855 7.41198L10.176 5.80173L10.176 10.1465C10.176 10.2459 10.1365 10.3413 10.0661 10.4116C9.99582 10.482 9.90043 10.5215 9.80098 10.5215Z" fill="#FF9138"/>
<path d="M18.417 6.98548C18.7744 6.98548 19.0864 7.06015 19.353 7.20948C19.625 7.35882 19.833 7.56948 19.977 7.84148C20.1264 8.10815 20.201 8.41748 20.201 8.76948C20.201 9.12148 20.121 9.43615 19.961 9.71348C19.801 9.98548 19.577 10.1988 19.289 10.3535C19.0064 10.5028 18.6784 10.5775 18.305 10.5775C17.9744 10.5775 17.6517 10.5188 17.337 10.4015C17.0224 10.2842 16.7557 10.1242 16.537 9.92148C16.4517 9.84148 16.409 9.75082 16.409 9.64948C16.409 9.56948 16.4304 9.50282 16.473 9.44948C16.5157 9.39615 16.5664 9.36948 16.625 9.36948C16.6997 9.36948 16.7744 9.39882 16.849 9.45748C17.0837 9.64948 17.3184 9.79348 17.553 9.88948C17.7877 9.98015 18.033 10.0255 18.289 10.0255C18.6837 10.0255 18.993 9.91348 19.217 9.68948C19.441 9.46548 19.553 9.16148 19.553 8.77748C19.553 8.40415 19.441 8.10282 19.217 7.87348C18.993 7.64415 18.6917 7.52948 18.313 7.52948C17.8277 7.52948 17.433 7.71615 17.129 8.08948C17.0544 8.16948 16.9637 8.20948 16.857 8.20948C16.7824 8.20948 16.7184 8.18815 16.665 8.14548C16.617 8.09748 16.593 8.03348 16.593 7.95348V5.19348C16.593 5.10282 16.6197 5.02815 16.673 4.96948C16.7317 4.91082 16.8117 4.88148 16.913 4.88148H19.729C19.825 4.88148 19.8997 4.90548 19.953 4.95348C20.0117 5.00148 20.041 5.06815 20.041 5.15348C20.041 5.23882 20.0117 5.30548 19.953 5.35348C19.8997 5.40148 19.825 5.42548 19.729 5.42548H17.241V7.43348C17.3904 7.28948 17.5637 7.18015 17.761 7.10548C17.9637 7.02548 18.1824 6.98548 18.417 6.98548ZM23.2299 6.97748C23.5712 6.97748 23.8752 7.05215 24.1419 7.20148C24.4086 7.35082 24.6166 7.56148 24.7659 7.83348C24.9152 8.10548 24.9899 8.41748 24.9899 8.76948C24.9899 9.11615 24.9126 9.42815 24.7579 9.70548C24.6032 9.98282 24.3872 10.1988 24.1099 10.3535C23.8326 10.5082 23.5206 10.5855 23.1739 10.5855C22.4912 10.5855 21.9632 10.3482 21.5899 9.87348C21.2219 9.39882 21.0379 8.72148 21.0379 7.84148C21.0379 7.21215 21.1232 6.67082 21.2939 6.21748C21.4646 5.76415 21.7126 5.41748 22.0379 5.17748C22.3632 4.93748 22.7499 4.81748 23.1979 4.81748C23.5019 4.81748 23.8032 4.87615 24.1019 4.99348C24.4059 5.11082 24.6646 5.27082 24.8779 5.47348C24.9686 5.55882 25.0139 5.64948 25.0139 5.74548C25.0139 5.82548 24.9926 5.89215 24.9499 5.94548C24.9072 5.99882 24.8566 6.02548 24.7979 6.02548C24.7232 6.02548 24.6459 5.99615 24.5659 5.93748C24.1019 5.55882 23.6512 5.36948 23.2139 5.36948C22.7392 5.36948 22.3686 5.58548 22.1019 6.01748C21.8352 6.44948 21.7019 7.05482 21.7019 7.83348V7.93748C21.8246 7.63882 22.0219 7.40415 22.2939 7.23348C22.5712 7.06282 22.8832 6.97748 23.2299 6.97748ZM23.1419 10.0335C23.5046 10.0335 23.7952 9.91882 24.0139 9.68948C24.2326 9.46015 24.3419 9.15615 24.3419 8.77748C24.3419 8.39882 24.2299 8.09748 24.0059 7.87348C23.7872 7.64415 23.4966 7.52948 23.1339 7.52948C22.7659 7.52948 22.4646 7.64682 22.2299 7.88148C22.0006 8.11082 21.8859 8.40948 21.8859 8.77748C21.8859 9.15082 22.0006 9.45482 22.2299 9.68948C22.4646 9.91882 22.7686 10.0335 23.1419 10.0335ZM26.291 9.65748C26.4243 9.65748 26.531 9.71082 26.611 9.81748C26.6963 9.91882 26.739 10.0735 26.739 10.2815C26.739 10.7028 26.603 11.0575 26.331 11.3455C26.2776 11.4042 26.2163 11.4335 26.147 11.4335C26.0936 11.4335 26.0456 11.4122 26.003 11.3695C25.9603 11.3322 25.939 11.2868 25.939 11.2335C25.939 11.1748 25.9603 11.1242 26.003 11.0815C26.1416 10.9375 26.2296 10.7588 26.267 10.5455C26.1496 10.5348 26.051 10.4922 25.971 10.4175C25.8963 10.3375 25.859 10.2362 25.859 10.1135C25.859 9.98015 25.899 9.87082 25.979 9.78548C26.0643 9.70015 26.1683 9.65748 26.291 9.65748ZM31.4791 8.75348C31.5751 8.75348 31.6498 8.78015 31.7031 8.83348C31.7564 8.88148 31.7831 8.94548 31.7831 9.02548C31.7831 9.20682 31.6818 9.29748 31.4791 9.29748H30.8791V10.2255C30.8791 10.3322 30.8471 10.4148 30.7831 10.4735C30.7244 10.5322 30.6471 10.5615 30.5511 10.5615C30.4551 10.5615 30.3778 10.5322 30.3191 10.4735C30.2604 10.4148 30.2311 10.3322 30.2311 10.2255V9.29748H27.8631C27.7671 9.29748 27.6924 9.27082 27.6391 9.21748C27.5858 9.16415 27.5591 9.09748 27.5591 9.01748C27.5591 8.94282 27.5884 8.86015 27.6471 8.76948L30.2631 4.98548C30.3378 4.88948 30.4338 4.84148 30.5511 4.84148C30.6418 4.84148 30.7191 4.87082 30.7831 4.92948C30.8471 4.98815 30.8791 5.07082 30.8791 5.17748V8.75348H31.4791ZM28.3031 8.75348H30.2311V5.97748L28.3031 8.75348ZM35.948 9.96948C36.044 9.96948 36.1186 9.99348 36.172 10.0415C36.2253 10.0895 36.252 10.1562 36.252 10.2415C36.252 10.3322 36.2253 10.4015 36.172 10.4495C36.124 10.4975 36.0493 10.5215 35.948 10.5215H33.3C33.1986 10.5215 33.1213 10.4975 33.068 10.4495C33.02 10.4015 32.996 10.3322 32.996 10.2415C32.996 10.1562 33.0226 10.0895 33.076 10.0415C33.1293 9.99348 33.204 9.96948 33.3 9.96948H34.292V5.68148L33.42 6.24948C33.3773 6.27615 33.3346 6.28948 33.292 6.28948C33.2173 6.28948 33.1506 6.25482 33.092 6.18548C33.0386 6.11615 33.012 6.04148 33.012 5.96148C33.012 5.84948 33.0546 5.76948 33.14 5.72148L34.356 4.92948C34.4466 4.87082 34.54 4.84148 34.636 4.84148C34.7266 4.84148 34.8013 4.87082 34.86 4.92948C34.9186 4.98815 34.948 5.07082 34.948 5.17748V9.96948H35.948ZM39.2328 10.4815C39.1635 10.5988 39.0755 10.6575 38.9688 10.6575C38.8995 10.6575 38.8382 10.6335 38.7848 10.5855C38.7368 10.5375 38.7128 10.4735 38.7128 10.3935C38.7128 10.3295 38.7315 10.2682 38.7688 10.2095L41.8248 4.92148C41.8942 4.80415 41.9822 4.74548 42.0888 4.74548C42.1582 4.74548 42.2168 4.77215 42.2648 4.82548C42.3182 4.87348 42.3448 4.93482 42.3448 5.00948C42.3448 5.06815 42.3288 5.12948 42.2968 5.19348L39.2328 10.4815ZM38.6088 8.26548C38.1822 8.26548 37.8488 8.12148 37.6088 7.83348C37.3688 7.54015 37.2488 7.10815 37.2488 6.53748C37.2488 5.97215 37.3688 5.54548 37.6088 5.25748C37.8488 4.96415 38.1822 4.81748 38.6088 4.81748C39.0355 4.81748 39.3688 4.96415 39.6088 5.25748C39.8488 5.54548 39.9688 5.97215 39.9688 6.53748C39.9688 7.10815 39.8488 7.54015 39.6088 7.83348C39.3688 8.12148 39.0355 8.26548 38.6088 8.26548ZM38.6088 7.80148C38.8702 7.80148 39.0622 7.70015 39.1848 7.49748C39.3128 7.29482 39.3768 6.97482 39.3768 6.53748C39.3768 6.10548 39.3128 5.78815 39.1848 5.58548C39.0622 5.38282 38.8702 5.28148 38.6088 5.28148C38.3475 5.28148 38.1528 5.38282 38.0248 5.58548C37.8968 5.78815 37.8328 6.10548 37.8328 6.53748C37.8328 6.97482 37.8968 7.29482 38.0248 7.49748C38.1528 7.70015 38.3475 7.80148 38.6088 7.80148ZM42.4488 10.5775C42.0222 10.5775 41.6888 10.4335 41.4488 10.1455C41.2088 9.85215 41.0888 9.42015 41.0888 8.84948C41.0888 8.28415 41.2088 7.85748 41.4488 7.56948C41.6888 7.27615 42.0222 7.12948 42.4488 7.12948C42.8808 7.12948 43.2142 7.27348 43.4488 7.56148C43.6888 7.84948 43.8088 8.27882 43.8088 8.84948C43.8088 9.42015 43.6888 9.85215 43.4488 10.1455C43.2142 10.4335 42.8808 10.5775 42.4488 10.5775ZM42.4488 10.1135C42.7155 10.1135 42.9102 10.0148 43.0328 9.81748C43.1608 9.61482 43.2248 9.29215 43.2248 8.84948C43.2248 8.41748 43.1608 8.10015 43.0328 7.89748C42.9048 7.69482 42.7102 7.59348 42.4488 7.59348C42.1875 7.59348 41.9928 7.69482 41.8648 7.89748C41.7422 8.10015 41.6808 8.41748 41.6808 8.84948C41.6808 9.28682 41.7422 9.60682 41.8648 9.80948C41.9928 10.0122 42.1875 10.1135 42.4488 10.1135Z" fill="#FF9138"/>
</svg>
