<svg width="49" height="16" viewBox="0 0 49 16" fill="none" xmlns="http://www.w3.org/2000/svg">
<rect x="0.301025" y="0.532227" width="48" height="14.9781" rx="7.18115" fill="#FF9501" fill-opacity="0.15"/>
<path fill-rule="evenodd" clip-rule="evenodd" d="M9.80099 10.5215C9.70154 10.5215 9.60615 10.482 9.53583 10.4116C9.4655 10.3413 9.42599 10.2459 9.42599 10.1465L9.42599 5.80173L7.81649 7.41198C7.78163 7.44685 7.74024 7.47451 7.69468 7.49338C7.64913 7.51225 7.6003 7.52196 7.55099 7.52196C7.50169 7.52196 7.45286 7.51225 7.40731 7.49338C7.36175 7.47451 7.32036 7.44685 7.28549 7.41198C7.25063 7.37712 7.22297 7.33573 7.2041 7.29017C7.18523 7.24462 7.17552 7.19579 7.17552 7.14648C7.17552 7.09718 7.18523 7.04835 7.2041 7.0028C7.22297 6.95724 7.25063 6.91585 7.28549 6.88098L9.53549 4.63098C9.57033 4.59606 9.61171 4.56835 9.65727 4.54945C9.70283 4.53054 9.75167 4.52081 9.80099 4.52081C9.85032 4.52081 9.89916 4.53055 9.94472 4.54945C9.99028 4.56835 10.0317 4.59606 10.0665 4.63098L12.3165 6.88098C12.3514 6.91585 12.379 6.95724 12.3979 7.0028C12.4168 7.04835 12.4265 7.09718 12.4265 7.14648C12.4265 7.19579 12.4168 7.24462 12.3979 7.29017C12.379 7.33573 12.3514 7.37712 12.3165 7.41198C12.2461 7.4824 12.1506 7.52196 12.051 7.52196C12.0017 7.52196 11.9529 7.51225 11.9073 7.49338C11.8618 7.47451 11.8204 7.44685 11.7855 7.41198L10.176 5.80173L10.176 10.1465C10.176 10.2459 10.1365 10.3413 10.0662 10.4116C9.99583 10.482 9.90045 10.5215 9.80099 10.5215Z" fill="#FF9138"/>
<path d="M18.953 7.62548C19.2944 7.72148 19.553 7.88682 19.729 8.12148C19.9104 8.35615 20.001 8.64682 20.001 8.99348C20.001 9.48415 19.8357 9.87082 19.505 10.1535C19.1744 10.4362 18.7237 10.5775 18.153 10.5775C17.8064 10.5775 17.473 10.5188 17.153 10.4015C16.8384 10.2842 16.5717 10.1242 16.353 9.92148C16.2677 9.84148 16.225 9.75082 16.225 9.64948C16.225 9.56948 16.2464 9.50282 16.289 9.44948C16.3317 9.39615 16.3824 9.36948 16.441 9.36948C16.5157 9.36948 16.5904 9.39882 16.665 9.45748C16.9104 9.65482 17.1504 9.79882 17.385 9.88948C17.6197 9.98015 17.873 10.0255 18.145 10.0255C18.5397 10.0255 18.8384 9.93482 19.041 9.75348C19.249 9.57215 19.353 9.31082 19.353 8.96948C19.353 8.28148 18.921 7.93748 18.057 7.93748H17.633C17.5477 7.93748 17.4784 7.91082 17.425 7.85748C17.377 7.79882 17.353 7.73215 17.353 7.65748C17.353 7.58282 17.377 7.51882 17.425 7.46548C17.4784 7.41215 17.5477 7.38548 17.633 7.38548H17.929C18.345 7.38548 18.665 7.29482 18.889 7.11348C19.113 6.92682 19.225 6.66015 19.225 6.31348C19.225 6.00948 19.1344 5.77748 18.953 5.61748C18.7717 5.45215 18.5157 5.36948 18.185 5.36948C17.9344 5.36948 17.6917 5.41748 17.457 5.51348C17.2224 5.60415 16.9877 5.74548 16.753 5.93748C16.6784 5.99615 16.6037 6.02548 16.529 6.02548C16.4704 6.02548 16.4197 5.99882 16.377 5.94548C16.3344 5.89215 16.313 5.82548 16.313 5.74548C16.313 5.64415 16.3557 5.55348 16.441 5.47348C16.6597 5.27082 16.9237 5.11082 17.233 4.99348C17.5477 4.87615 17.8704 4.81748 18.201 4.81748C18.713 4.81748 19.121 4.94815 19.425 5.20948C19.729 5.47082 19.8784 5.82282 19.873 6.26548C19.8677 6.58548 19.7824 6.86548 19.617 7.10548C19.457 7.34548 19.2357 7.51882 18.953 7.62548ZM24.6619 9.96948C24.7579 9.96948 24.8326 9.99348 24.8859 10.0415C24.9392 10.0895 24.9659 10.1562 24.9659 10.2415C24.9659 10.4282 24.8646 10.5215 24.6619 10.5215H21.5259C21.4352 10.5215 21.3606 10.4948 21.3019 10.4415C21.2432 10.3828 21.2139 10.3135 21.2139 10.2335C21.2139 10.1322 21.2512 10.0442 21.3259 9.96948L23.2539 7.84948C23.5206 7.55082 23.7126 7.28415 23.8299 7.04948C23.9526 6.80948 24.0139 6.56948 24.0139 6.32948C24.0139 6.02015 23.9232 5.78282 23.7419 5.61748C23.5659 5.45215 23.3152 5.36948 22.9899 5.36948C22.7339 5.36948 22.4886 5.41748 22.2539 5.51348C22.0192 5.60415 21.7846 5.74548 21.5499 5.93748C21.4699 6.00148 21.3952 6.03348 21.3259 6.03348C21.2672 6.03348 21.2166 6.00682 21.1739 5.95348C21.1312 5.89482 21.1099 5.82548 21.1099 5.74548C21.1099 5.63348 21.1526 5.54282 21.2379 5.47348C21.4566 5.27082 21.7232 5.11082 22.0379 4.99348C22.3526 4.87615 22.6752 4.81748 23.0059 4.81748C23.5126 4.81748 23.9152 4.95082 24.2139 5.21748C24.5179 5.48415 24.6699 5.84415 24.6699 6.29748C24.6699 6.62282 24.5952 6.93482 24.4459 7.23348C24.3019 7.53215 24.0619 7.86548 23.7259 8.23348L22.1259 9.96948H24.6619ZM26.2988 9.65748C26.4321 9.65748 26.5388 9.71082 26.6188 9.81748C26.7041 9.91882 26.7468 10.0735 26.7468 10.2815C26.7468 10.7028 26.6108 11.0575 26.3388 11.3455C26.2854 11.4042 26.2241 11.4335 26.1548 11.4335C26.1014 11.4335 26.0534 11.4122 26.0108 11.3695C25.9681 11.3322 25.9468 11.2868 25.9468 11.2335C25.9468 11.1748 25.9681 11.1242 26.0108 11.0815C26.1494 10.9375 26.2374 10.7588 26.2748 10.5455C26.1574 10.5348 26.0588 10.4922 25.9788 10.4175C25.9041 10.3375 25.8668 10.2362 25.8668 10.1135C25.8668 9.98015 25.9068 9.87082 25.9868 9.78548C26.0721 9.70015 26.1761 9.65748 26.2988 9.65748ZM31.4869 8.75348C31.5829 8.75348 31.6576 8.78015 31.7109 8.83348C31.7642 8.88148 31.7909 8.94548 31.7909 9.02548C31.7909 9.20682 31.6896 9.29748 31.4869 9.29748H30.8869V10.2255C30.8869 10.3322 30.8549 10.4148 30.7909 10.4735C30.7322 10.5322 30.6549 10.5615 30.5589 10.5615C30.4629 10.5615 30.3856 10.5322 30.3269 10.4735C30.2682 10.4148 30.2389 10.3322 30.2389 10.2255V9.29748H27.8709C27.7749 9.29748 27.7002 9.27082 27.6469 9.21748C27.5936 9.16415 27.5669 9.09748 27.5669 9.01748C27.5669 8.94282 27.5962 8.86015 27.6549 8.76948L30.2709 4.98548C30.3456 4.88948 30.4416 4.84148 30.5589 4.84148C30.6496 4.84148 30.7269 4.87082 30.7909 4.92948C30.8549 4.98815 30.8869 5.07082 30.8869 5.17748V8.75348H31.4869ZM28.3109 8.75348H30.2389V5.97748L28.3109 8.75348ZM35.9558 9.96948C36.0518 9.96948 36.1264 9.99348 36.1798 10.0415C36.2331 10.0895 36.2598 10.1562 36.2598 10.2415C36.2598 10.3322 36.2331 10.4015 36.1798 10.4495C36.1318 10.4975 36.0571 10.5215 35.9558 10.5215H33.3078C33.2064 10.5215 33.1291 10.4975 33.0758 10.4495C33.0278 10.4015 33.0038 10.3322 33.0038 10.2415C33.0038 10.1562 33.0304 10.0895 33.0838 10.0415C33.1371 9.99348 33.2118 9.96948 33.3078 9.96948H34.2998V5.68148L33.4278 6.24948C33.3851 6.27615 33.3424 6.28948 33.2998 6.28948C33.2251 6.28948 33.1584 6.25482 33.0998 6.18548C33.0464 6.11615 33.0198 6.04148 33.0198 5.96148C33.0198 5.84948 33.0624 5.76948 33.1478 5.72148L34.3638 4.92948C34.4544 4.87082 34.5478 4.84148 34.6438 4.84148C34.7344 4.84148 34.8091 4.87082 34.8678 4.92948C34.9264 4.98815 34.9558 5.07082 34.9558 5.17748V9.96948H35.9558ZM39.2407 10.4815C39.1713 10.5988 39.0833 10.6575 38.9767 10.6575C38.9073 10.6575 38.846 10.6335 38.7927 10.5855C38.7447 10.5375 38.7207 10.4735 38.7207 10.3935C38.7207 10.3295 38.7393 10.2682 38.7767 10.2095L41.8327 4.92148C41.902 4.80415 41.99 4.74548 42.0967 4.74548C42.166 4.74548 42.2247 4.77215 42.2727 4.82548C42.326 4.87348 42.3527 4.93482 42.3527 5.00948C42.3527 5.06815 42.3367 5.12948 42.3047 5.19348L39.2407 10.4815ZM38.6167 8.26548C38.19 8.26548 37.8567 8.12148 37.6167 7.83348C37.3767 7.54015 37.2567 7.10815 37.2567 6.53748C37.2567 5.97215 37.3767 5.54548 37.6167 5.25748C37.8567 4.96415 38.19 4.81748 38.6167 4.81748C39.0433 4.81748 39.3767 4.96415 39.6167 5.25748C39.8567 5.54548 39.9767 5.97215 39.9767 6.53748C39.9767 7.10815 39.8567 7.54015 39.6167 7.83348C39.3767 8.12148 39.0433 8.26548 38.6167 8.26548ZM38.6167 7.80148C38.878 7.80148 39.07 7.70015 39.1927 7.49748C39.3207 7.29482 39.3847 6.97482 39.3847 6.53748C39.3847 6.10548 39.3207 5.78815 39.1927 5.58548C39.07 5.38282 38.878 5.28148 38.6167 5.28148C38.3553 5.28148 38.1607 5.38282 38.0327 5.58548C37.9047 5.78815 37.8407 6.10548 37.8407 6.53748C37.8407 6.97482 37.9047 7.29482 38.0327 7.49748C38.1607 7.70015 38.3553 7.80148 38.6167 7.80148ZM42.4567 10.5775C42.03 10.5775 41.6967 10.4335 41.4567 10.1455C41.2167 9.85215 41.0967 9.42015 41.0967 8.84948C41.0967 8.28415 41.2167 7.85748 41.4567 7.56948C41.6967 7.27615 42.03 7.12948 42.4567 7.12948C42.8887 7.12948 43.222 7.27348 43.4567 7.56148C43.6967 7.84948 43.8167 8.27882 43.8167 8.84948C43.8167 9.42015 43.6967 9.85215 43.4567 10.1455C43.222 10.4335 42.8887 10.5775 42.4567 10.5775ZM42.4567 10.1135C42.7233 10.1135 42.918 10.0148 43.0407 9.81748C43.1687 9.61482 43.2327 9.29215 43.2327 8.84948C43.2327 8.41748 43.1687 8.10015 43.0407 7.89748C42.9127 7.69482 42.718 7.59348 42.4567 7.59348C42.1953 7.59348 42.0007 7.69482 41.8727 7.89748C41.75 8.10015 41.6887 8.41748 41.6887 8.84948C41.6887 9.28682 41.75 9.60682 41.8727 9.80948C42.0007 10.0122 42.1953 10.1135 42.4567 10.1135Z" fill="#FF9138"/>
</svg>
